<svg xmlns="http://www.w3.org/2000/svg" width="40" height="40" viewBox="0 0 1254 1254">
  <path fill="#10152B" d="M815.9 213.34C819.6 213.2 823.3 213.17 826.9 213.26C851.1 213.69 874.8 220.51 895.5 233.01C912.8 243.61 924.8 256.79 938.9 271.03L974.7 307.57C1004.3 337.86 1034.9 368.84 1063.9 399.34C1135.9 475.07 1180.7 579.5 1177 684.73C1174.5 756.77 1153.6 813.65 1115.1 873.72C1101.8 894.45 1087.1 914.22 1071 932.86C1058.4 947.19 1045 959.65 1031.4 972.96C1018.2 985.9 1005 998.76 991.8 1011.54C911.4 1087.37 810.3 1133.01 698.2 1130.99C618.1 1129.54 539.9 1103.99 476.9 1053.92C461.6 1041.7 449.3 1029.07 435.8 1014.76C434.5 1013.46 433.2 1012.14 431.9 1010.82C414.5 993.22 397 974.4 379.8 956.61C367.6 944.13 349 926.1 338.7 913.45C316.5 886.45 301 846.08 301.8 811.18C302.9 763.1 324.5 730.04 357.2 697.97L227.1 565.14L193.2 530.35C165.7 502.31 144.7 482.46 140.8 440.71C138.2 412.09 147.2 383.63 165.7 361.64C184.6 338.97 211.8 324.83 241.2 322.42C272.6 319.58 303.9 329.53 327.9 350.03C335.9 356.83 346.6 368.28 354.1 375.94L395.6 418.54C401.6 424.77 410 434.43 416.5 439.66C433.8 394.16 480.9 364.64 529.1 367.16C538 367.62 544.9 368.93 553.4 370.89C554.3 363.31 555.3 357.34 557.6 350C566.7 321.77 586.6 298.28 612.9 284.64C641.8 269.69 673.1 267.53 704 277.18C737.3 238.98 763.2 217.04 815.9 213.34Z"/>
  <path fill="#FEFEFE" d="M815.9 272.7C817.8 272.37 823.3 272.33 825.2 272.38C839.8 272.83 854 277.34 866.2 285.41C875.3 291.55 885.8 303.23 893.7 311.36L928.9 347.52C959.3 378.84 991.1 410.05 1020.9 441.81C1095.3 521.12 1137.7 643.96 1105.6 750.75C1083.1 825.89 1030.8 891.75 973.8 944.15C961.4 955.57 949.7 968.19 937.3 979.67C870.5 1041.67 781.8 1074.66 690.7 1071.42C626.7 1068.92 556.7 1043.92 508.2 1002.03C489.1 985.57 469.6 963.69 451.8 945.34C432 924.6 411.7 903.3 391.9 882.67C364.8 854.49 353.7 812.38 371.6 776.34C378.5 762.42 387.1 753.25 398.5 743.04C413 758.98 431.4 776.91 446.7 792.63L540.5 889.41C555.5 874.56 570.7 859.85 586 845.28C570 827.37 548.9 806.89 532 789.57L312.3 565.06L242.2 493.64C234.9 486.17 216.9 468.99 211.2 461.49C204.7 452.91 201.1 442.5 200.8 431.74C200.2 398.86 231 376.06 262.7 382.38C284.5 386.73 295.6 402.32 310.6 417.54L353.8 461.6L523.8 634.51C537.9 620.56 552.1 606.74 566.5 593.06C559.3 584.97 550 576.12 542.3 568.39L504.3 529.96C497.2 522.79 483.8 510.01 478.8 502.07C474.1 494.32 471.6 485.44 471.6 476.38C471.5 463.26 476.8 450.68 486.1 441.46C496.1 431.73 509.6 426.42 523.6 426.7C552.1 427.24 566.4 447.69 584.9 466.5L635.1 517.9C650.6 502.4 666.2 486.99 682 471.67C669.3 457.11 653.1 442.94 639.6 428.81C625.6 414.02 613.5 405.25 613.1 382.95C612.9 369.9 617.8 357.29 626.8 347.84C636.7 337.85 650.1 332.12 664.1 331.89C673.6 331.77 683 334.27 691.2 339.11C699.6 344.17 710.2 356 717.4 363.26C729.7 375.66 741.6 388.72 754.1 400.99C768.4 386.71 782.8 372.54 797.4 358.49C782.9 343.77 766.6 327.95 752.7 312.9C773.4 291.68 784.8 276.54 815.9 272.7Z"/>
</svg>
